<?xml version="1.0" encoding="UTF-8" standalone="no" ?><!DOCTYPE svg PUBLIC "-//W3C//DTD SVG 1.1//EN" "http://www.w3.org/Graphics/SVG/1.1/DTD/svg11.dtd">
<svg xmlns="http://www.w3.org/2000/svg" xmlns:xlink="http://www.w3.org/1999/xlink" version="1.1" width="800" height="500" xml:space="preserve"><desc>Created with Fabric.js 1.5.0</desc><defs></defs><g style="stroke: none; stroke-width: 1; stroke-dasharray: ; stroke-linecap: butt; stroke-linejoin: miter; stroke-miterlimit: 10; fill: #6db1b5; fill-rule: nonzero; opacity: 1;" transform="translate(243.29 41.72999999999999) scale(2.61 2.61)" >
<path d="M 90.5 18.2 c -0.467 0 -0.85 0 -1.15 0 H 89.2 c -1.034 0.066 -1.917 0.617 -2.65 1.65 c -0.433 0.933 -0.316 2.033 0.351 3.3 c 0.366 0.4 1.033 0.983 2 1.75 c 1.6 1.133 3.35 2.85 5.25 5.15 c 1.866 2.333 3.066 5.65 3.6 9.95 c -0.033 1.1 -0.566 1.75 -1.6 1.95 H 96 c -0.967 -0.067 -1.533 -0.6 -1.7 -1.6 c -0.433 -3.567 -1.417 -6.3 -2.95 -8.2 c -1.5 -1.867 -3.016 -3.316 -4.55 -4.35 c -1.3 -0.933 -2.267 -1.867 -2.899 -2.8 c -0.768 -1.333 -1.15 -2.667 -1.15 -4 c -0.533 -0.567 -1.684 -1.183 -3.45 -1.85 c -1.767 -0.7 -4.216 -0.967 -7.35 -0.8 c -1.034 -0.033 -1.65 -0.583 -1.851 -1.65 c 0 -1 0.533 -1.617 1.601 -1.85 c 6.2 0 10.316 0.933 12.35 2.8 c 0.733 -0.967 1.684 -1.7 2.851 -2.2 c -3.7 -7.534 -9.851 -11.5 -18.45 -11.9 C 63.017 3.617 58.333 5.5 54.4 9.2 c 2.067 1.5 3.95 4.65 5.65 9.45 c 0.167 1.1 -0.25 1.833 -1.25 2.2 c -0.167 0.1 -0.316 0.15 -0.45 0.15 c -0.867 -0.033 -1.45 -0.467 -1.75 -1.3 c -0.9 -2.8 -1.95 -4.883 -3.15 -6.25 c -1.233 -1.367 -2.067 -2.167 -2.5 -2.4 l -0.45 -0.7 c -3.333 -2.2 -7.033 -3.3 -11.1 -3.3 C 33.667 7.183 28.9 9.167 25.1 13 c -3.833 3.8 -5.817 8.567 -5.95 14.3 c 0 0.167 0 0.333 0 0.5 v 0.1 c -0.167 0.6 0.4 2.6 1.7 6 c 0.433 1.033 0.167 1.833 -0.8 2.4 c -0.267 0.133 -0.533 0.217 -0.8 0.25 c -0.7 -0.066 -1.233 -0.417 -1.6 -1.05 c -0.933 -2 -1.517 -3.733 -1.75 -5.2 c -7.967 3 -12.183 8.767 -12.65 17.3 c 0.1 5.1 1.85 9.35 5.25 12.75 c 3.4 3.434 7.683 5.217 12.85 5.351 c 2.033 0 4.017 -0.351 5.95 -1.05 c -0.7 -5.566 0.417 -10.284 3.35 -14.15 c 3.1 -3.933 7.75 -6.25 13.95 -6.95 c 1.667 -1 2.95 -2.4 3.85 -4.2 c 0.933 -1.8 1.3 -3.35 1.1 -4.65 c 0 -1.167 0.5 -1.867 1.5 -2.1 c 1.167 0 1.867 0.5 2.1 1.5 c 0.367 2.867 -0.6 5.917 -2.9 9.15 c 9.1 -0.8 15.017 -4.45 17.75 -10.95 c -1.7 -1.6 -2.767 -3.15 -3.2 -4.65 c -0.2 -1 0.184 -1.717 1.15 -2.15 c 1 -0.2 1.733 0.183 2.2 1.15 c -0.033 0.434 0.717 1.483 2.25 3.15 c 1.533 1.667 4.383 2.267 8.55 1.8 c 1.167 -0.033 1.866 0.467 2.1 1.5 c 0 1.133 -0.5 1.816 -1.5 2.05 c -1.1 0.133 -2.134 0.217 -3.1 0.25 c -2.101 0 -3.917 -0.35 -5.45 -1.05 c -3.733 8.133 -11.383 12.4 -22.95 12.8 c -6.8 0.2 -11.633 2.117 -14.5 5.75 c -2.533 3.434 -3.35 7.667 -2.45 12.7 c 3.267 8.268 9.35 12.601 18.25 13 c 3 0 5.833 -0.684 8.5 -2.05 c 3.466 -2.134 6.466 -4.017 9 -5.649 c 4.467 -3 8.484 -5.184 12.051 -6.551 c 3.566 -1.333 7.816 -1.449 12.75 -0.35 c 1.533 -1.233 3.066 -2 4.6 -2.3 s 2.416 -0.417 2.65 -0.351 c 1.133 0.101 1.75 0.667 1.85 1.7 c -0.1 1.134 -0.684 1.75 -1.75 1.851 c -0.166 -0.033 -0.9 0.083 -2.2 0.35 c -1.267 0.267 -2.366 0.95 -3.3 2.05 c -1 1.467 -1.084 3.517 -0.25 6.15 c 0.267 1 -0.117 1.716 -1.15 2.149 c -0.199 0.101 -0.383 0.15 -0.55 0.15 c -0.866 -0.033 -1.45 -0.467 -1.75 -1.3 c -0.833 -2.767 -0.917 -5.184 -0.25 -7.25 c -3.733 -0.733 -7.05 -0.5 -9.95 0.7 c -2.934 1.232 -6.533 3.266 -10.8 6.1 c -2.1 1.367 -4.55 2.9 -7.35 4.6 c 2.899 3 6.433 4.551 10.6 4.65 c 3.101 -0.033 5.9 -0.916 8.4 -2.65 c -3.167 -3.766 -4.667 -5.967 -4.5 -6.6 c -0.167 -1.1 0.216 -1.867 1.149 -2.3 c 1.033 -0.2 1.768 0.183 2.2 1.149 c -0.033 0.101 0.333 0.801 1.101 2.101 c 0.766 1.3 2.05 2.716 3.85 4.25 c 2.566 1.966 5.5 2.966 8.8 3 c 4.067 -0.101 7.45 -1.517 10.15 -4.25 c 2.733 -2.7 4.149 -6.083 4.25 -10.15 c 0 -0.733 -0.05 -1.466 -0.15 -2.2 c -0.667 -4.5 -2.85 -7.85 -6.55 -10.05 c -2.2 -1.267 -4.434 -2.05 -6.7 -2.35 c -2.267 -0.3 -4.066 -0.317 -5.399 -0.05 c -0.033 1.033 -0.234 2.184 -0.601 3.45 c -0.267 0.833 -0.833 1.25 -1.7 1.25 c -0.199 0.033 -0.399 0 -0.6 -0.1 c -1 -0.367 -1.383 -1.1 -1.15 -2.2 c 0.7 -2.833 0.518 -4.85 -0.55 -6.05 c -1.1 -1.233 -1.767 -1.833 -2 -1.8 c -0.866 -0.467 -1.167 -1.233 -0.899 -2.3 c 0.5 -0.867 1.266 -1.167 2.3 -0.9 c 1.533 0.433 3.116 2.2 4.75 5.3 c 4.134 -0.833 8.966 0.133 14.5 2.9 c 0.233 0.133 0.466 0.283 0.7 0.45 c 1.899 -3.667 2.583 -7.15 2.05 -10.45 c -0.534 -3.3 -0.917 -5.083 -1.15 -5.35 c -0.267 -1.067 0.083 -1.833 1.05 -2.3 c 1.066 -0.3 1.834 0.05 2.301 1.05 c 0.399 0.467 0.916 2.683 1.55 6.65 c 0.6 3.967 -0.366 8.117 -2.9 12.45 c 1.8 1.866 3.134 4.066 4 6.6 c 4.233 -4.966 6.384 -10.733 6.45 -17.3 c -0.166 -7.467 -2.717 -13.667 -7.65 -18.6 C 104.133 20.967 97.934 18.4 90.5 18.2 z M 81.85 4.1 c 3.967 2.7 6.884 6.333 8.75 10.9 c 8.4 0.2 15.4 3.1 21 8.7 c 5.601 5.633 8.518 12.65 8.75 21.05 c -0.133 8.4 -3.217 15.533 -9.25 21.4 c 0.101 0.699 0.15 1.316 0.15 1.85 c -0.133 5.1 -1.9 9.334 -5.3 12.7 c -3.366 3.399 -7.601 5.167 -12.7 5.3 c -3.6 -0.033 -6.867 -1 -9.8 -2.9 c -3.3 2.566 -7.067 3.884 -11.3 3.95 c -5.5 -0.167 -10.066 -2.316 -13.7 -6.45 c -2.8 1.234 -5.767 1.834 -8.9 1.801 c -9.8 -0.434 -16.783 -5.033 -20.95 -13.801 c -2.2 0.768 -4.517 1.15 -6.95 1.15 c -6.133 -0.166 -11.233 -2.283 -15.3 -6.35 C 2.283 59.334 0.167 54.217 0 48.05 c 0.067 -4.933 1.55 -9.3 4.45 -13.1 c 2.867 -3.8 6.65 -6.383 11.35 -7.75 c 0.333 -6.567 2.733 -12.034 7.2 -16.4 c 4.467 -4.333 10.017 -6.583 16.65 -6.75 c 4.2 0 8.117 1.034 11.75 3.1 C 56.133 2.45 61.816 0.067 68.45 0 C 73.45 0.067 77.916 1.433 81.85 4.1 z" style="stroke: none; stroke-width: 1; stroke-dasharray: ; stroke-linecap: butt; stroke-linejoin: miter; stroke-miterlimit: 10; fill: #6db1b5; fill-rule: evenodd; opacity: 1;" transform="" stroke-linecap="round" />
<path d="M 71.1 47.35 c 0.967 0.566 1.316 1.217 1.051 1.95 c -1.101 3.434 -4.217 6.633 -9.351 9.601 c 0.833 1.199 2.283 1.699 4.351 1.5 c 1.066 -0.134 1.766 0.316 2.1 1.35 c 0.1 1.066 -0.367 1.767 -1.4 2.1 c -0.566 0.2 -1.133 0.283 -1.699 0.25 c -3.601 -0.566 -5.867 -1.766 -6.801 -3.6 c -1.267 0.5 -2.65 0.916 -4.15 1.25 c -4.767 1.066 -7.967 2.767 -9.6 5.1 c -0.367 0.566 -0.867 0.834 -1.5 0.801 c -0.333 0 -0.667 -0.117 -1 -0.351 c -0.867 -0.634 -1.033 -1.433 -0.5 -2.399 c 2.2 -3.033 6.133 -5.184 11.8 -6.45 c 5.4 -1.4 9.117 -3.217 11.15 -5.45 c 2.067 -2.233 3.149 -3.767 3.25 -4.6 C 69.267 47.433 70.033 47.083 71.1 47.35 z" style="stroke: none; stroke-width: 1; stroke-dasharray: ; stroke-linecap: butt; stroke-linejoin: miter; stroke-miterlimit: 10; fill: #6db1b5; fill-rule: evenodd; opacity: 1;" transform="" stroke-linecap="round" />
<path d="M 44.7 19.6 c 0.934 -0.6 1.733 -0.483 2.4 0.35 c 0.6 0.967 0.483 1.8 -0.35 2.5 c -1.033 1 -3.217 1.667 -6.55 2 c -0.233 -0.033 -0.466 -0.033 -0.7 0 c -0.733 7.133 -2.95 12.683 -6.65 16.65 c -3.667 3.967 -7.167 6.317 -10.5 7.05 c -0.367 0.333 -0.567 1.45 -0.6 3.35 c 0 3.767 -1.617 6.084 -4.85 6.95 c -0.1 0 -0.217 0 -0.35 0 c -0.867 -0.067 -1.433 -0.533 -1.7 -1.399 c -0.133 -1.034 0.333 -1.734 1.4 -2.101 c 1.6 -0.6 2.283 -1.667 2.05 -3.2 c -0.1 -1.233 -0.017 -2.316 0.25 -3.25 c -2.1 -0.2 -3.75 -0.65 -4.95 -1.35 c -1.167 -0.7 -1.784 -1.133 -1.85 -1.3 c -0.733 -0.833 -0.783 -1.667 -0.15 -2.5 c 0.867 -0.733 1.716 -0.783 2.55 -0.15 c 0.067 0.167 0.717 0.55 1.95 1.15 c 1.233 0.633 2.933 0.8 5.1 0.5 c 2.6 -0.367 5.7 -2.45 9.3 -6.25 c 2.933 -2.867 4.816 -7.867 5.65 -15 c -1.833 -0.667 -3.667 -1.967 -5.5 -3.9 c -0.667 -0.9 -0.633 -1.75 0.1 -2.55 c 0.9 -0.633 1.75 -0.583 2.55 0.15 c 2.934 2.8 5.533 3.95 7.8 3.45 C 43.367 20.284 44.566 19.9 44.7 19.6 z" style="stroke: none; stroke-width: 1; stroke-dasharray: ; stroke-linecap: butt; stroke-linejoin: miter; stroke-miterlimit: 10; fill: #6db1b5; fill-rule: evenodd; opacity: 1;" transform="" stroke-linecap="round" />
<path d="M 84 81.1 c 1 0.166 1.916 0.517 2.75 1.05 c 0.467 0.101 0.934 0.217 1.4 0.351 L 96.8 93.899 L 87.9 96 l 7.149 16.899 l -24.3 -20.95 l 11.3 -2.1 l -1.95 -5.4 C 81.066 82.583 82.367 81.467 84 81.1 z" style="stroke: none; stroke-width: 1; stroke-dasharray: ; stroke-linecap: butt; stroke-linejoin: miter; stroke-miterlimit: 10; fill: #6db1b5; fill-rule: evenodd; opacity: 1;" transform="" stroke-linecap="round" />
</g>
	<g transform="translate(399.23 391.69)">
		<text font-family="Abril Fatface" font-size="70" font-weight="normal" style="stroke: none; stroke-width: 1; stroke-dasharray: ; stroke-linecap: butt; stroke-linejoin: miter; stroke-miterlimit: 10; fill: #41b883; fill-rule: nonzero; opacity: 1;" ><tspan x="-68.81" y="15.722" fill="#41b883">PSH</tspan></text>
	</g>
	<g transform="translate(400 464.85)">
		<text font-family="Abril Fatface" font-size="56" font-weight="normal" style="stroke: none; stroke-width: 1; stroke-dasharray: ; stroke-linecap: butt; stroke-linejoin: miter; stroke-miterlimit: 10; fill: #329fc7; fill-rule: nonzero; opacity: 1;" ><tspan x="0" y="12.5776" fill="#329fc7"></tspan></text>
	</g>
</svg>